{"title":"Nikka Zaildar (2016) 720p WebHD-Rip x264 AAC Mafiaking M2Tv","magnet":"magnet:?xt=urn:btih:84f793186f1b99905fb4e8fbf3c41259545c219a&dn=Nikka+Zaildar+%282016%29+720p+WebHD-Rip+x264+AAC+Mafiaking+M2Tv&tr=udp%3A%2F%2Ftracker.leechers-paradise.org%3A6969&tr=udp%3A%2F%2Fzer0day.ch%3A1337&tr=udp%3A%2F%2Fopen.demonii.com%3A1337&tr=udp%3A%2F%2Ftracker.coppersurfer.tk%3A6969&tr=udp%3A%2F%2Fexodus.desync.com%3A6969","uploader":"mafiaaking","categoryP":"video","categoryS":"movies","size":"1064502676","seeders":"4","leechers":"23","description":"Nikka Zaildar (2016) - 720p - WebHD-Rip - Punjabi - x264 - AAC - Mafiaking - M2Tv\r\n\r\nIMDB=http://www.imdb.com/title/tt6047120/\r\n\r\n\r\nRatings: 7.6/10\r\n\r\nGenere: &#xA0; &#xA0; &#xA0;Drama \r\n\r\nGeneral\r\nComplete name                            : Nikka Zaildar (2016) 720p WebHD-Rip x264 AAC Mafiaking M2Tv.mkv\r\nFormat                                   : Matroska\r\nFormat version                           : Version 4 / Version 2\r\nFile size                                : 1 008 MiB\r\nDuration                                 : 2 h 13 min\r\nOverall bit rate                         : 1 053 kb/s\r\n\r\nVideo\r\nID                                       : 1\r\nFormat                                   : AVC\r\nFormat profile                           : <a class=\"__cf_email__\" href=\"/cdn-cgi/l/email-protection\" data-cfemail=\"c68eafa1ae868af5e8f7\">[email&#xA0;protected]</a><script data-cfhash=\"f9e31\" type=\"text/javascript\">/* <![CDATA[ */!function(t,e,r,n,c,a,p){try{t=document.currentScript||function(){for(t=document.getElementsByTagName('script'),e=t.length;e--;)if(t[e].getAttribute('data-cfhash'))return t[e]}();if(t&&(c=t.previousSibling)){p=t.parentNode;if(a=c.getAttribute('data-cfemail')){for(e='',r='0x'+a.substr(0,2)|0,n=2;a.length-n;n+=2)e+='%'+('0'+('0x'+a.substr(n,2)^r).toString(16)).slice(-2);p.replaceChild(document.createTextNode(decodeURIComponent(e)),c)}p.removeChild(t)}}catch(u){}}()/* ]]> */</script>\r\nCodec ID                                 : V_MPEG4/ISO/AVC\r\nDuration                                 : 2 h 13 min\r\nBit rate                                 : 925 kb/s\r\nWidth                                    : 1 280 pixels\r\nHeight                                   : 536 pixels\r\nFrame rate                               : 24.000 FPS\r\nStream size                              : 886 MiB (88%)\r\nTitle                                    : Mafiaking\r\nLanguage                                 : Panjabi\r\n\r\nAudio\r\nID                                       : 2\r\nFormat                                   : AAC\r\nDuration                                 : 2 h 13 min\r\nBit rate                                 : 126 kb/s\r\nChannel(s)                               : 2 channels\r\nStream size                              : 120 MiB (12%)\r\nTitle                                    : Mafiaking\r\nLanguage                                 : Panjabi\r\n                                \r\nScreens:-\r\n  <a href=\"\nhttps://www.lookimg.com/image/xn715\" rel=\"nofollow\" target=\"_NEW\">\nhttps://www.lookimg.com/image/xn715</a> <a href=\"\nhttps://www.lookimg.com/image/xnxAm\" rel=\"nofollow\" target=\"_NEW\">\nhttps://www.lookimg.com/image/xnxAm</a> <a href=\"\nhttps://www.lookimg.com/image/xnziA\" rel=\"nofollow\" target=\"_NEW\">\nhttps://www.lookimg.com/image/xnziA</a> <a href=\"\nhttps://www.lookimg.com/image/xn2pR\" rel=\"nofollow\" target=\"_NEW\">\nhttps://www.lookimg.com/image/xn2pR</a> <a href=\"\nhttps://www.lookimg.com/image/xnBve\" rel=\"nofollow\" target=\"_NEW\">\nhttps://www.lookimg.com/image/xnBve</a> <a href=\"\nhttps://www.lookimg.com/image/xnK0U\" rel=\"nofollow\" target=\"_NEW\">\nhttps://www.lookimg.com/image/xnK0U</a> <a href=\"\nhttps://www.lookimg.com/image/xnOCn\" rel=\"nofollow\" target=\"_NEW\">\nhttps://www.lookimg.com/image/xnOCn</a> <a href=\"\nhttps://www.lookimg.com/image/xngrq\" rel=\"nofollow\" target=\"_NEW\">\nhttps://www.lookimg.com/image/xngrq</a> <a href=\"\nhttps://www.lookimg.com/image/xnouQ\" rel=\"nofollow\" target=\"_NEW\">\nhttps://www.lookimg.com/image/xnouQ</a> <a href=\"\nhttps://www.lookimg.com/image/xnuwW\" rel=\"nofollow\" target=\"_NEW\">\nhttps://www.lookimg.com/image/xnuwW</a> <a href=\"\nhttps://www.lookimg.com/image/xn85h\" rel=\"nofollow\" target=\"_NEW\">\nhttps://www.lookimg.com/image/xn85h</a> <a href=\"\nhttps://www.lookimg.com/image/xnhAr\" rel=\"nofollow\" target=\"_NEW\">\nhttps://www.lookimg.com/image/xnhAr</a> <a href=\"\nhttps://www.lookimg.com/image/xnTij\" rel=\"nofollow\" target=\"_NEW\">\nhttps://www.lookimg.com/image/xnTij</a>","last_updated":"2017-05-27T09:06:25.023Z","parsed":{"xt":"urn:btih:84f793186f1b99905fb4e8fbf3c41259545c219a","dn":"Nikka Zaildar (2016) 720p WebHD-Rip x264 AAC Mafiaking M2Tv","tr":["udp://exodus.desync.com:6969","udp://open.demonii.com:1337","udp://tracker.coppersurfer.tk:6969","udp://tracker.leechers-paradise.org:6969","udp://zer0day.ch:1337"],"infoHash":"84f793186f1b99905fb4e8fbf3c41259545c219a","infoHashBuffer":{"type":"Buffer","data":[132,247,147,24,111,27,153,144,95,180,232,251,243,196,18,89,84,92,33,154]},"name":"Nikka Zaildar (2016) 720p WebHD-Rip x264 AAC Mafiaking M2Tv","announce":["udp://exodus.desync.com:6969","udp://open.demonii.com:1337","udp://tracker.coppersurfer.tk:6969","udp://tracker.leechers-paradise.org:6969","udp://zer0day.ch:1337"],"urlList":[]}}